<svg fill="currentColor" viewBox="0 0 24 24" xmlns="http://www.w3.org/2000/svg"><g fill-rule="evenodd"><g id="Group" transform="translate(3.75, 4.25)" fill-rule="nonzero"><path d="M8.84,15.54 C8.84,15.79 9.04,16 9.29,16 L15.55,16 C15.81,16 16.01,15.79 15.99,15.54 C15.77,11.94 12.89,9.06 9.29,8.84 C9.04,8.82 8.84,9.03 8.84,9.28 L8.84,15.54 Z" id="grey"></path><path d="M7.15,9.29 C7.15,9.04 6.95,8.84 6.70,8.84 L0.44,8.84 C0.18,8.84 -0.01,9.04 0.00,9.29 C0.22,12.89 3.10,15.77 6.70,15.99 C6.95,16.01 7.15,15.81 7.15,15.55 L7.15,9.29 Z" id="grey-copy"></path><path d="M7.15,6.70 C7.15,6.95 6.95,7.15 6.70,7.15 L0.44,7.15 C0.18,7.15 -0.01,6.95 0.00,6.70 C0.22,3.10 3.10,0.22 6.70,0.00 C6.95,-0.01 7.15,0.18 7.15,0.44 L7.15,6.70 Z" id="pink"></path><path d="M8.84,0.45 C8.84,0.20 9.04,8.68e-10 9.29,8.68e-10 L15.55,8.68e-10 C15.81,8.68e-10 16.01,0.20 15.99,0.45 C15.77,4.05 12.89,6.93 9.29,7.15 C9.04,7.17 8.84,6.96 8.84,6.71 L8.84,0.45 Z" id="blue"></path></g></g></svg>